<svg id="Layer_1" data-name="Layer 1" xmlns="http://www.w3.org/2000/svg" viewBox="0 0 50 52"><link xmlns="" type="text/css" rel="stylesheet" id="dark-mode-custom-link"/><link xmlns="" type="text/css" rel="stylesheet" id="dark-mode-general-link"/><style xmlns="" lang="en" type="text/css" id="dark-mode-custom-style"/><style xmlns="" lang="en" type="text/css" id="dark-mode-native-style"/><defs><style>.cls-1{fill:#f3f3f4;}.cls-2{fill:#f7901e;}.cls-22,.cls-3,.cls-31{fill:#bf6819;}.cls-4{fill:#b25e19;}.cls-5{fill:#efc88f;}.cls-6{fill:#f59d00;}.cls-7{font-size:4px;letter-spacing:0.07em;}.cls-15,.cls-21,.cls-7{fill:#fff;}.cls-22,.cls-7{font-family:MuseoSlab-700, Museo Slab;}.cls-15,.cls-22,.cls-31,.cls-7{font-weight:700;}.cls-8{letter-spacing:0.08em;}.cls-9{letter-spacing:0.06em;}.cls-10{letter-spacing:0.07em;}.cls-11{letter-spacing:0.08em;}.cls-12{letter-spacing:0.08em;}.cls-13{letter-spacing:0.08em;}.cls-14{letter-spacing:0.05em;}.cls-15{font-size:6.13px;letter-spacing:0.08em;}.cls-15,.cls-31{font-family:ProximaNova-Bold, Proxima Nova;}.cls-16{letter-spacing:0.08em;}.cls-17{letter-spacing:0.08em;}.cls-18{letter-spacing:0.06em;}.cls-19{letter-spacing:0.06em;}.cls-20{letter-spacing:0.05em;}.cls-22{font-size:3.93px;letter-spacing:0.07em;}.cls-23{letter-spacing:0.08em;}.cls-24{letter-spacing:0.06em;}.cls-25{letter-spacing:0.07em;}.cls-26{letter-spacing:0.08em;}.cls-27{letter-spacing:0.08em;}.cls-28{letter-spacing:0.08em;}.cls-29{letter-spacing:0.09em;}.cls-30{letter-spacing:0.05em;}.cls-31{font-size:6.14px;letter-spacing:0.08em;}.cls-32{letter-spacing:0.08em;}.cls-33{letter-spacing:0.08em;}.cls-34{letter-spacing:0.06em;}.cls-35{letter-spacing:0.05em;}</style></defs><path class="cls-1" d="M.94,18.5a.41.41,0,0,1-.33-.17.55.55,0,0,1-.09-.47l1.56-6.24a.49.49,0,0,0,0-.24L.52,5.14a.55.55,0,0,1,.09-.47A.41.41,0,0,1,.94,4.5H49.06a.41.41,0,0,1,.33.17.55.55,0,0,1,.09.47l-1.56,6.24a.49.49,0,0,0,0,.24l1.56,6.24a.55.55,0,0,1-.09.47.41.41,0,0,1-.33.17Z"/><path class="cls-2" d="M49,5V5l-1.56,6.24a1,1,0,0,0,0,.48L49,18H1v0l1.56-6.24a1,1,0,0,0,0-.48L1,5H49m.06-1H.94A1,1,0,0,0,0,5.26L1.59,11.5,0,17.74A1,1,0,0,0,.94,19H49.06A1,1,0,0,0,50,17.74L48.41,11.5,50,5.26A1,1,0,0,0,49.06,4Z"/><path class="cls-3" d="M25,40.81a1.21,1.21,0,0,1-.59-.16L7.59,30.84a1.16,1.16,0,0,1-.59-1V3.65A1.18,1.18,0,0,1,8.18,2.47H41.82A1.18,1.18,0,0,1,43,3.65V29.83a1.16,1.16,0,0,1-.59,1L25.59,40.65A1.18,1.18,0,0,1,25,40.81Z"/><path class="cls-2" d="M41.82,3.47a.18.18,0,0,1,.18.18V29.82a.17.17,0,0,1-.09.16l-16.82,9.8-.09,0-.09,0L8.09,30A.17.17,0,0,1,8,29.82V3.65a.18.18,0,0,1,.18-.18H41.82m0-2H8.18A2.19,2.19,0,0,0,6,3.65v6.54H6V29.82a2.18,2.18,0,0,0,1.08,1.89l16.82,9.8a2.17,2.17,0,0,0,2.2,0l16.82-9.8A2.18,2.18,0,0,0,44,29.82V10.2h0V3.65a2.19,2.19,0,0,0-2.18-2.18Z"/><rect class="cls-4" x="6" y="15.99" width="38" height="1.03"/><path class="cls-5" d="M29.49,46.7l2.61-.89.22-.08a5.29,5.29,0,0,0,3.15-3.6l.05-.22.53-2.71-2.61.89-.22.08a5.34,5.34,0,0,0-3.15,3.6L30,44c-.3,1.49-.54,2.71-.54,2.71"/><path class="cls-6" d="M28.4,49.36l2.41,1.34.18.1a5.3,5.3,0,0,0,4.78-.08l.2-.12,2.37-1.42-2.42-1.34-.17-.1a5.29,5.29,0,0,0-4.79.08l-.19.11L28.4,49.36"/><path class="cls-6" d="M35.45,44.88s.89.44,2,1l.15.08a4.24,4.24,0,0,0,3.81-.29l.15-.1,1.83-1.25-2-1-.15-.07a4.24,4.24,0,0,0-3.81.28l-.15.11-1.83,1.24"/><path class="cls-5" d="M38.47,41.81l1.84-1.21.14-.09a4.24,4.24,0,0,0,1.72-3.42l0-.18C42.08,35.7,42,34.7,42,34.7l-1.84,1.22L40,36a4.23,4.23,0,0,0-1.71,3.42v.19c.07,1.21.13,2.2.13,2.2"/><path class="cls-6" d="M42.11,40.77l1.74.31.13,0a3.41,3.41,0,0,0,2.88-1L47,40l1.14-1.36-1.74-.31-.13,0a3.41,3.41,0,0,0-2.88,1l-.09.11-1.14,1.36"/><path class="cls-5" d="M44.15,37,45.53,36l.11-.08A3.39,3.39,0,0,0,46.76,33l0-.14c-.14-1-.26-1.75-.26-1.75L45.1,32.22,45,32.3a3.39,3.39,0,0,0-1.12,2.85l0,.14c.14,1,.26,1.75.26,1.75"/><path class="cls-5" d="M20.6,46.7,18,45.81l-.22-.08a5.33,5.33,0,0,1-3.16-3.6l0-.22C14.28,40.42,14,39.2,14,39.2l2.62.89.21.08A5.33,5.33,0,0,1,20,43.77l0,.22c.3,1.49.54,2.71.54,2.71"/><path class="cls-6" d="M21.69,49.36,19.28,50.7l-.19.1a5.3,5.3,0,0,1-4.78-.08l-.19-.12-2.37-1.42,2.41-1.34.18-.1a5.27,5.27,0,0,1,4.78.08l.2.11,2.37,1.43"/><path class="cls-6" d="M14.64,44.88l-2,1-.15.08a4.26,4.26,0,0,1-3.82-.29l-.14-.1L6.71,44.28l2-1,.15-.07a4.24,4.24,0,0,1,3.81.28l.15.11,1.83,1.24"/><path class="cls-5" d="M11.62,41.81,9.77,40.6l-.13-.09a4.24,4.24,0,0,1-1.72-3.42v-.18c.08-1.21.14-2.21.14-2.21l1.84,1.22.14.08a4.26,4.26,0,0,1,1.71,3.42v.19c-.07,1.21-.13,2.2-.13,2.2"/><path class="cls-6" d="M8,40.77l-1.74.31-.13,0a3.41,3.41,0,0,1-2.88-1L3.14,40,2,38.59l1.74-.31.13,0a3.39,3.39,0,0,1,2.87,1l.1.11C7.46,40.16,8,40.77,8,40.77"/><path class="cls-5" d="M5.94,37,4.56,36l-.11-.08A3.43,3.43,0,0,1,3.32,33l0-.14c.14-1,.26-1.75.26-1.75L5,32.22l.1.08a3.4,3.4,0,0,1,1.13,2.85l0,.14c-.14,1-.26,1.75-.26,1.75"/><path class="cls-6" d="M26.88,44.9,25.31,44a.78.78,0,0,0-.7,0L23,44.9a.78.78,0,0,0-.34.61v1.81a.76.76,0,0,0,.34.6l1.58.9a.78.78,0,0,0,.7,0l1.57-.9a.75.75,0,0,0,.35-.6V45.51A.77.77,0,0,0,26.88,44.9Z"/><text class="cls-7" transform="translate(4.88 13.83)">C<tspan class="cls-8" x="3.25" y="0">RE</tspan><tspan class="cls-9" x="9.28" y="0">D</tspan><tspan class="cls-10" x="12.65" y="0">E</tspan><tspan class="cls-11" x="15.51" y="0">N</tspan><tspan class="cls-12" x="19.23" y="0">T</tspan><tspan class="cls-13" x="22.25" y="0">IA</tspan><tspan class="cls-14" x="27.46" y="0">L</tspan></text><text class="cls-15" transform="translate(4.88 9.33)">I<tspan class="cls-16" x="2.14" y="0">G</tspan><tspan class="cls-17" x="7.06" y="0">N</tspan><tspan class="cls-18" x="12.02" y="0">I</tspan><tspan class="cls-19" x="14.07" y="0">T</tspan><tspan x="18.02" y="0">IO</tspan><tspan class="cls-20" x="25.32" y="0">N</tspan></text><rect class="cls-21" x="4.5" y="0.5" width="41" height="15" rx="1.55"/><path class="cls-2" d="M44,1a1,1,0,0,1,1,1V14A1,1,0,0,1,44,15H6.05A1,1,0,0,1,5,14V2.05a1,1,0,0,1,1-1H44m0-1H6.05A2.05,2.05,0,0,0,4,2.05V14A2.05,2.05,0,0,0,6.05,16H44A2.05,2.05,0,0,0,46,14V2.05a2.05,2.05,0,0,0-2-2Z"/><text class="cls-22" transform="translate(10.03 12.16)">C<tspan class="cls-23" x="3.2" y="0">RE</tspan><tspan class="cls-24" x="9.12" y="0">D</tspan><tspan class="cls-25" x="12.42" y="0">E</tspan><tspan class="cls-26" x="15.23" y="0">N</tspan><tspan class="cls-27" x="18.89" y="0">T</tspan><tspan class="cls-28" x="21.85" y="0">I</tspan><tspan class="cls-29" x="23.77" y="0">A</tspan><tspan class="cls-30" x="26.97" y="0">L</tspan></text><text class="cls-31" transform="translate(10.03 8)">I<tspan class="cls-32" x="2.15" y="0">G</tspan><tspan class="cls-33" x="7.06" y="0">N</tspan><tspan class="cls-34" x="12.02" y="0">IT</tspan><tspan x="18.03" y="0">IO</tspan><tspan class="cls-35" x="25.34" y="0">N</tspan></text><path class="cls-21" d="M20.5,24.6A2.54,2.54,0,0,1,22.24,27c0,1.79-1.52,3-3.79,3S15,28.79,15,27.17a2.75,2.75,0,0,1,1.77-2.33,2.41,2.41,0,0,1-1.45-2.21c0-1.72,1.35-2.7,3.49-2.7S22,21,22,22.54A2.31,2.31,0,0,1,20.5,24.6Zm-2.09,1c-.4.18-1.28.63-1.28,1.5s.53,1.22,1.46,1.22,1.47-.46,1.47-1.26S19.3,25.91,18.41,25.57Zm.41-1.6a1.59,1.59,0,0,0,1.12-1.34c0-.6-.51-1-1.31-1s-1.3.42-1.3,1S18,23.67,18.82,24Z"/><path class="cls-21" d="M24.3,27.5a1.08,1.08,0,0,1,1.16,1.24A1.17,1.17,0,0,1,24.28,30c-.76,0-1.16-.45-1.16-1.25A1.17,1.17,0,0,1,24.3,27.5Z"/><path class="cls-21" d="M26.52,29.81V28.23h1.93V22.3l-2.11,1.35-.8-1.46,3.28-2.09h1.77v8.13h1.86v1.58Z"/><g id="Ignition_Logo_-_Checkmark_16x16" data-name="Ignition Logo - Checkmark 16x16"><path class="cls-1" d="M34.2,27.49a1.48,1.48,0,0,0-.6-.33l-.29-.08.13-.27c.92-1.91,2-4.24,2.87-6.08l.24-.51c.18-.39.4-.87.46-1a1.13,1.13,0,0,1,1.05-.66,1.44,1.44,0,0,1,1.28.83A1.39,1.39,0,0,1,39,20.82c-.1.15-.22.31-.35.53l-1.24,1.83c-1,1.41-2,2.86-2.85,4.25l-.15.24Z"/><path class="cls-3" d="M38.06,18.83a1.17,1.17,0,0,1,1,.69c.2.71-.15.85-.66,1.7-1.32,2-2.79,4.08-4.09,6.08a1.8,1.8,0,0,0-.69-.38c.92-1.91,2-4.24,2.87-6.09.12-.25.59-1.3.69-1.46a.89.89,0,0,1,.83-.54m0-.5a1.4,1.4,0,0,0-1.28.82c-.05.09-.23.47-.47,1-.1.2-.18.38-.22.47-.63,1.35-1.84,3.93-2.88,6.08l-.25.54.57.16a1.28,1.28,0,0,1,.51.28l.43.37.31-.48c.9-1.38,1.88-2.83,2.83-4.23.43-.63.85-1.24,1.25-1.84.14-.23.25-.39.35-.53a1.61,1.61,0,0,0,.38-1.59v-.07a1.67,1.67,0,0,0-1.51-1Z"/><path class="cls-1" d="M31.41,26.62a20.93,20.93,0,0,1-1.2-1.81.93.93,0,0,1,0-.94,1.16,1.16,0,0,1,1-.57,1.06,1.06,0,0,1,.31.05,1.32,1.32,0,0,1,.78,1.06l.31,1c.15.49.3,1,.41,1.4l.08.26-.27.05a1.62,1.62,0,0,0-.59.25L32,27.5Z"/><path class="cls-3" d="M31.2,23.55a.62.62,0,0,1,.23,0c.49.18.54.65.7,1.14.2.65.47,1.55.64,2.14a1.8,1.8,0,0,0-.68.29c-.54-.78-1.22-1.69-1.66-2.47a.81.81,0,0,1,.77-1.14m0-.5a1.39,1.39,0,0,0-1.19.69,1.18,1.18,0,0,0,0,1.19c.33.59.78,1.22,1.21,1.83l.48.68.28.41.41-.28a1.48,1.48,0,0,1,.5-.21l.53-.1-.15-.52c-.1-.38-.25-.87-.4-1.34l-.24-.81a2.5,2.5,0,0,0-.08-.25,1.58,1.58,0,0,0-.93-1.22,1.16,1.16,0,0,0-.4-.07Z"/><path class="cls-1" d="M33.14,30.22a1.34,1.34,0,1,1,1.35-1.34A1.32,1.32,0,0,1,33.14,30.22Z"/><path class="cls-3" d="M33.14,27.8A1.09,1.09,0,1,1,32,28.88a1.05,1.05,0,0,1,1.1-1.08m0-.5h0a1.59,1.59,0,1,0,1.6,1.59,1.56,1.56,0,0,0-1.6-1.59Z"/></g></svg>